<svg width="100" height="100" viewBox="0 0 100 100" fill="none" xmlns="http://www.w3.org/2000/svg">
<path d="M50 15.8203C48.9213 15.8203 48.0469 16.6947 48.0469 17.7734V29.4922C48.0469 30.5709 48.9213 31.4453 50 31.4453C51.0787 31.4453 51.9531 30.5709 51.9531 29.4922V17.7734C51.9531 16.6947 51.0787 15.8203 50 15.8203Z" fill="#56C400"/>
<path d="M73.4375 50.9766C72.3588 50.9766 71.4844 51.851 71.4844 52.9297V85.1562C71.4844 91.0795 76.3033 95.8984 82.2266 95.8984C88.1498 95.8984 92.9688 91.0795 92.9688 85.1562C92.9688 82.2867 91.8514 79.5893 89.8225 77.5604C89.0598 76.7977 87.823 76.7977 87.0604 77.5604C86.2977 78.323 86.2977 79.5598 87.0604 80.3225C88.3514 81.6135 89.0625 83.3303 89.0625 85.1562C89.0625 88.9256 85.9959 91.9922 82.2266 91.9922C78.4572 91.9922 75.3906 88.9256 75.3906 85.1562V52.9297C75.3906 51.851 74.5162 50.9766 73.4375 50.9766Z" fill="#56C400"/>
<path d="M12.9396 77.5604C12.177 76.7977 10.9402 76.7977 10.1775 77.5604C8.14863 79.5893 7.03125 82.2867 7.03125 85.1562C7.03125 91.0795 11.8502 95.8984 17.7734 95.8984C23.6967 95.8984 28.5156 91.0795 28.5156 85.1562V52.9297C28.5156 51.851 27.6412 50.9766 26.5625 50.9766C25.4838 50.9766 24.6094 51.851 24.6094 52.9297V85.1562C24.6094 88.9256 21.5428 91.9922 17.7734 91.9922C14.0041 91.9922 10.9375 88.9256 10.9375 85.1562C10.9375 83.3303 11.6486 81.6135 12.9396 80.3225C13.7023 79.5598 13.7025 78.3232 12.9396 77.5604Z" fill="#56C400"/>
<path d="M14.8438 50.9766C13.765 50.9766 12.8906 51.851 12.8906 52.9297V64.6484C12.8906 66.8023 11.1383 68.5547 8.98438 68.5547C6.83047 68.5547 5.07812 66.8023 5.07812 64.6484C5.07812 63.5697 4.20371 62.6953 3.125 62.6953C2.04629 62.6953 1.17188 63.5697 1.17188 64.6484C1.17188 68.9562 4.67656 72.4609 8.98438 72.4609C13.2922 72.4609 16.7969 68.9562 16.7969 64.6484V52.9297C16.7969 51.851 15.9225 50.9766 14.8438 50.9766Z" fill="#56C400"/>
<path d="M85.1562 50.9766C84.0775 50.9766 83.2031 51.851 83.2031 52.9297V64.6484C83.2031 68.9562 86.7078 72.4609 91.0156 72.4609C95.3234 72.4609 98.8281 68.9562 98.8281 64.6484C98.8281 63.5697 97.9537 62.6953 96.875 62.6953C95.7963 62.6953 94.9219 63.5697 94.9219 64.6484C94.9219 66.8023 93.1695 68.5547 91.0156 68.5547C88.8617 68.5547 87.1094 66.8023 87.1094 64.6484V52.9297C87.1094 51.851 86.235 50.9766 85.1562 50.9766Z" fill="#56C400"/>
<path d="M80.8594 43.1641C81.9381 43.1641 82.8125 42.2896 82.8125 41.2109C82.8125 40.1323 81.9381 39.2578 80.8594 39.2578C79.7807 39.2578 78.9062 40.1323 78.9062 41.2109C78.9062 42.2896 79.7807 43.1641 80.8594 43.1641Z" fill="#56C400"/>
<path d="M98.0469 4.10156H1.95312C0.874414 4.10156 0 4.97598 0 6.05469V41.2109C0 42.2896 0.874414 43.1641 1.95312 43.1641H72.0701C73.1488 43.1641 74.0232 42.2896 74.0232 41.2109C74.0232 40.1322 73.1488 39.2578 72.0701 39.2578H63.6719V31.4453H96.0938V39.2578H89.6484C88.5697 39.2578 87.6953 40.1322 87.6953 41.2109C87.6953 42.2896 88.5697 43.1641 89.6484 43.1641H98.0469C99.1256 43.1641 100 42.2896 100 41.2109V6.05469C100 4.97598 99.1256 4.10156 98.0469 4.10156ZM96.0938 15.8203H63.6719V8.00781H96.0938V15.8203ZM3.90625 19.7266H36.3281V27.5391H3.90625V19.7266ZM36.3281 8.00781V15.8203H3.90625V8.00781H36.3281ZM3.90625 31.4453H36.3281V39.2578H3.90625V31.4453ZM40.2344 39.2578V8.00781H59.7656V39.2578H40.2344ZM63.6719 27.5391V19.7266H96.0938V27.5391H63.6719Z" fill="#56C400"/>
</svg>
