<svg width="100" height="100" viewBox="0 0 100 100" fill="none" xmlns="http://www.w3.org/2000/svg">
<g clip-path="url(#clip0)">
<path d="M86.4275 20.894C77.6752 12.1417 66.0384 7.32159 53.6607 7.32159C50.2646 7.32159 46.8772 7.69698 43.5649 8.43642L42.2381 3.45755C41.9047 2.21303 41.0754 1.15152 39.9632 0.545466C38.8831 -0.0433972 37.6425 -0.159607 36.47 0.217148C33.3407 1.2232 30.2894 2.50854 27.3828 4.04427C25.9209 3.24955 24.1902 3.22689 22.7377 4.0595C14.2356 8.82275 8.82295 14.2356 4.06009 22.7371C3.2269 24.1898 3.24975 25.9207 4.04447 27.3828C2.50913 30.289 1.22379 33.3403 0.217348 36.4698V36.47C-0.159603 37.6425 -0.0430021 38.8831 0.545665 39.9633C1.15191 41.0756 2.21323 41.9047 3.4601 42.2389L8.43643 43.5649C7.69718 46.8774 7.32159 50.265 7.32159 53.6607C7.32159 66.0384 12.1417 77.6752 20.894 86.4275C29.6464 95.1799 41.2833 100 53.6609 100C66.0386 100 77.6754 95.1797 86.4277 86.4275C95.1801 77.6752 100 66.0384 100 53.6607C100 41.2831 95.1797 29.6464 86.4275 20.894ZM36.8727 25.6656C36.8618 25.6718 36.8509 25.6783 36.8401 25.6849C34.5702 27.055 32.4657 28.7035 30.5845 30.5845C28.7037 32.4655 27.055 34.5702 25.6849 36.8401C25.6785 36.8511 25.672 36.8618 25.6656 36.8729C23.9996 39.7587 22.1318 40.9426 19.4938 40.6598C21.3225 35.8751 24.1744 31.4704 27.8224 27.8224C31.4702 24.1744 35.8747 21.3227 40.6598 19.4938C40.9424 22.1316 39.7585 23.9994 36.8727 25.6656ZM3.97533 38.094C3.90033 37.9565 3.88744 37.8163 3.93568 37.6659C4.99153 34.3821 6.37707 31.1917 8.0542 28.1824C8.4792 27.4199 8.34639 26.4679 7.72921 25.8506C7.34952 25.4709 7.24503 25.0326 7.44952 24.6785C7.45382 24.6711 7.45792 24.6637 7.46222 24.656C11.9038 16.725 16.7243 11.9042 24.6556 7.46241C24.6631 7.45831 24.6705 7.45401 24.6779 7.44991C25.0324 7.24522 25.4707 7.34991 25.8502 7.72959C26.4674 8.34717 27.4193 8.47998 28.182 8.05479C31.1915 6.37745 34.3821 4.99192 37.6655 3.93626C37.8159 3.88782 37.9559 3.90052 38.0938 3.97571C38.2716 4.07259 38.4069 4.25227 38.4641 4.46634L41.3051 15.1276C35.222 17.0807 29.6082 20.5123 25.0599 25.0605C20.5117 29.6089 17.0801 35.2226 15.1272 41.3057L4.4681 38.4655C4.25189 38.4071 4.0722 38.2719 3.97533 38.094ZM53.6607 96.0938C30.263 96.0938 11.2276 77.0584 11.2276 53.6607C11.2276 50.6043 11.5598 47.5551 12.2139 44.5715L14.5085 45.1828C14.7618 45.2508 15.021 45.283 15.2811 45.283C16.1528 45.283 17.0309 44.9184 17.71 44.3145C18.5817 44.503 19.4211 44.5993 20.2262 44.5993C23.8672 44.5993 26.8213 42.6741 29.0384 38.8432C30.2437 36.8493 31.6931 35.0001 33.3466 33.3466C35.0003 31.6931 36.8495 30.2435 38.843 29.0384C43.5213 26.331 45.3557 22.524 44.3143 17.7092C45.0981 16.828 45.4785 15.611 45.1838 14.5112L44.5717 12.2139C47.5553 11.5598 50.6045 11.2276 53.6609 11.2276C77.0586 11.2276 96.094 30.263 96.094 53.6607C96.094 77.0584 77.0584 96.0938 53.6607 96.0938Z" fill="#56C400"/>
<path d="M16.1691 31.9953C16.7042 31.0587 16.3788 29.8658 15.4423 29.3304C14.5058 28.7951 13.3124 29.1208 12.7773 30.0572L12.7765 30.0585C12.2413 30.9953 12.5671 32.1874 13.5036 32.7228C13.8091 32.8976 14.1419 32.9802 14.4704 32.9802C15.1489 32.9802 15.8083 32.6263 16.1691 31.9953Z" fill="#56C400"/>
<path d="M31.0291 16.4258C31.3785 16.4258 31.7322 16.3323 32.0513 16.1358C32.9701 15.5704 33.2564 14.3674 32.691 13.4487C32.1255 12.5299 30.9224 12.2432 30.0039 12.809L30.0027 12.8098C29.0839 13.3752 28.7982 14.5778 29.3636 15.4965C29.7326 16.0959 30.373 16.4258 31.0291 16.4258Z" fill="#56C400"/>
<path d="M53.6609 30.2234C40.7376 30.2234 30.2236 40.7374 30.2236 53.6607C30.2236 62.9737 35.7384 71.4049 44.2731 75.14C44.528 75.2515 44.7936 75.3045 45.0551 75.3045C45.8075 75.3043 46.5245 74.8672 46.8456 74.134C47.278 73.1457 46.8276 71.9939 45.8393 71.5615C38.7261 68.4485 34.1298 61.422 34.1298 53.6609C34.1298 42.8913 42.8915 34.1298 53.6609 34.1298C64.4304 34.1298 73.192 42.8913 73.192 53.6609C73.192 61.4216 68.5964 68.4479 61.4839 71.5609C60.4956 71.9936 60.0453 73.1451 60.4779 74.1334C60.9105 75.1217 62.0617 75.5717 63.0503 75.1394C71.5842 71.4041 77.0985 62.9731 77.0985 53.6607C77.0983 40.7374 66.5843 30.2234 53.6609 30.2234Z" fill="#56C400"/>
<path d="M55.6141 39.9893C55.6141 38.9108 54.7396 38.0362 53.6609 38.0362H53.6596C52.5809 38.0362 51.707 38.9108 51.707 39.9893C51.707 41.0678 52.5822 41.9425 53.6609 41.9425C54.7396 41.9425 55.6141 41.0678 55.6141 39.9893Z" fill="#56C400"/>
<path d="M46.0067 40.0475L46.0055 40.0481C45.026 40.5001 44.5993 41.6604 45.0512 42.6399C45.3809 43.3542 46.0878 43.7749 46.826 43.7749C47.1001 43.7749 47.3786 43.7169 47.6436 43.5946C48.6231 43.1426 49.0507 41.9821 48.5985 41.0026C48.1466 40.0231 46.9856 39.5956 46.0067 40.0475Z" fill="#56C400"/>
<path d="M42.9044 45.2C42.007 44.6018 40.7945 44.8442 40.1958 45.7416L40.1952 45.7428C39.5968 46.6403 39.8398 47.8524 40.7372 48.4506C41.07 48.6727 41.4462 48.7788 41.8185 48.7788C42.4499 48.7788 43.0697 48.4733 43.446 47.9084C44.0447 47.0112 43.8021 45.7985 42.9044 45.2Z" fill="#56C400"/>
<path d="M41.9425 53.6609C41.9425 52.5824 41.0681 51.7078 39.9893 51.7078C38.9106 51.7078 38.0362 52.5824 38.0362 53.6609V53.6623C38.0362 54.7408 38.9106 55.6148 39.9893 55.6148C41.0681 55.6148 41.9425 54.7394 41.9425 53.6609Z" fill="#56C400"/>
<path d="M40.0749 61.3714C40.4171 62.0556 41.1064 62.4509 41.8226 62.4509C42.1161 62.4509 42.4144 62.3843 42.6948 62.2439C43.6597 61.7614 44.0503 60.5878 43.5681 59.623C43.0857 58.6583 41.9126 58.2671 40.9476 58.7493C39.9827 59.2318 39.5917 60.405 40.0741 61.3698L40.0749 61.3714Z" fill="#56C400"/>
<path d="M47.8489 63.8372C46.93 63.2718 45.7272 63.5581 45.1618 64.4768C44.5964 65.3956 44.8829 66.5985 45.8015 67.1639L45.8026 67.1647C46.1218 67.3612 46.4749 67.4545 46.8239 67.4545C47.4796 67.4545 48.1202 67.1241 48.4892 66.5245C49.0546 65.6059 48.7675 64.4026 47.8489 63.8372Z" fill="#56C400"/>
<path d="M53.6623 69.2854C54.741 69.2854 55.6149 68.4108 55.6149 67.3323C55.6149 66.2538 54.7397 65.3792 53.661 65.3792C52.5822 65.3792 51.7078 66.2538 51.7078 67.3323C51.7078 68.4108 52.5822 69.2854 53.661 69.2854H53.6623Z" fill="#56C400"/>
<path d="M61.5202 67.164L61.5214 67.1632C62.4402 66.5978 62.7259 65.3952 62.1605 64.4765C61.5951 63.5579 60.3917 63.272 59.4728 63.8372C58.5541 64.4026 58.2677 65.6056 58.8332 66.5243C59.2021 67.1237 59.8425 67.454 60.4984 67.454C60.8476 67.454 61.2011 67.3605 61.5202 67.164Z" fill="#56C400"/>
<path d="M66.4853 58.8089C65.5536 58.2657 64.3574 58.5806 63.8138 59.5124C63.2702 60.4442 63.5851 61.6403 64.5167 62.1837C64.8261 62.3644 65.1648 62.4501 65.4989 62.4501C66.1708 62.4501 66.8249 62.103 67.1878 61.4808L67.1884 61.4796C67.732 60.5478 67.4169 59.3523 66.4853 58.8089Z" fill="#56C400"/>
<path d="M69.2855 53.6609V53.6593C69.2855 52.5808 68.411 51.707 67.3323 51.707C66.2536 51.707 65.3792 52.5822 65.3792 53.6609C65.3792 54.7396 66.2536 55.614 67.3323 55.614C68.411 55.614 69.2855 54.7394 69.2855 53.6609Z" fill="#56C400"/>
<path d="M67.1251 45.7405C66.5268 44.843 65.3147 44.6006 64.4169 45.1992C63.5194 45.7975 63.2772 47.0108 63.8755 47.9082C64.2518 48.4729 64.8712 48.7781 65.5024 48.7781C65.8747 48.7781 66.2511 48.6719 66.5841 48.4498C67.4815 47.8516 67.7241 46.6389 67.1257 45.7414L67.1251 45.7405Z" fill="#56C400"/>
<path d="M60.4947 43.7745C61.1503 43.7745 61.791 43.4444 62.1599 42.8448C62.7254 41.926 62.4388 40.7231 61.5203 40.1577L61.5191 40.1569C60.6005 39.5915 59.398 39.8784 58.8326 40.7969C58.2671 41.7157 58.5543 42.919 59.473 43.4844C59.7921 43.6809 60.1455 43.7745 60.4947 43.7745Z" fill="#56C400"/>
<path d="M45.8485 53.661C45.8485 57.9688 49.3532 61.4735 53.661 61.4735C57.9688 61.4735 61.4735 57.9688 61.4735 53.661C61.4735 49.353 57.9688 45.8483 53.661 45.8483C49.3532 45.8483 45.8485 49.353 45.8485 53.661ZM53.661 49.7545C55.8149 49.7545 57.5673 51.5071 57.5673 53.661C57.5673 55.8149 55.8149 57.5672 53.661 57.5672C51.5071 57.5672 49.7548 55.8149 49.7548 53.661C49.7548 51.5071 51.5071 49.7545 53.661 49.7545Z" fill="#56C400"/>
<path d="M50.8652 25.568C51.1728 25.7456 51.5086 25.8301 51.84 25.8301C52.515 25.8301 53.1715 25.4797 53.5332 24.8532L57.1715 18.5514C57.7109 17.6172 57.3908 16.4229 56.4566 15.8834C55.5228 15.3444 54.3281 15.6641 53.7887 16.5983L50.1504 22.9C49.6109 23.8342 49.9308 25.0286 50.8652 25.568Z" fill="#56C400"/>
<path d="M23.8747 57.4334C24.5497 57.4334 25.2061 57.083 25.5678 56.4564C26.1073 55.5223 25.7872 54.3279 24.853 53.7885L18.5512 50.1502C17.6175 49.6109 16.4227 49.9311 15.8833 50.865C15.3438 51.7992 15.6639 52.9936 16.5981 53.533L22.8999 57.1713C23.2075 57.3488 23.5434 57.4334 23.8747 57.4334Z" fill="#56C400"/>
<path d="M28.7764 68.1752H21.4998C20.4211 68.1752 19.5467 69.0498 19.5467 70.1284C19.5467 71.2069 20.4211 72.0815 21.4998 72.0815H28.7764C29.8551 72.0815 30.7295 71.2069 30.7295 70.1284C30.7295 69.0498 29.8551 68.1752 28.7764 68.1752Z" fill="#56C400"/>
<path d="M39.3677 78.6728L33.066 82.3111C32.1318 82.8504 31.8117 84.0449 32.3511 84.9791C32.7129 85.6056 33.3693 85.956 34.0443 85.956C34.3756 85.956 34.7115 85.8715 35.0191 85.6939L41.3209 82.0556C42.2551 81.5164 42.5752 80.3218 42.0357 79.3877C41.4963 78.4535 40.3017 78.1334 39.3677 78.6728Z" fill="#56C400"/>
<path d="M56.4567 81.7539C55.5229 81.2148 54.3282 81.5347 53.7887 82.4687L50.1504 88.7705C49.611 89.7046 49.9311 90.899 50.8653 91.4384C51.1729 91.616 51.5086 91.7006 51.8401 91.7006C52.5151 91.7006 53.1715 91.3502 53.5333 90.7236L57.1715 84.4218C57.7108 83.4876 57.3909 82.2931 56.4567 81.7539Z" fill="#56C400"/>
<path d="M70.1284 76.5922C69.0497 76.5922 68.1753 77.4668 68.1753 78.5453V85.8219C68.1753 86.9004 69.0497 87.775 70.1284 87.775C71.2071 87.775 72.0815 86.9004 72.0815 85.8219V78.5453C72.0815 77.4666 71.2071 76.5922 70.1284 76.5922Z" fill="#56C400"/>
<path d="M82.0559 66.0011C81.5164 65.0671 80.3221 64.7466 79.3879 65.2862C78.4537 65.8257 78.1336 67.02 78.673 67.9542L82.3113 74.2559C82.673 74.8825 83.3295 75.2329 84.0045 75.2329C84.3357 75.2329 84.6717 75.1483 84.9793 74.9708C85.9135 74.4313 86.2336 73.237 85.6941 72.3028L82.0559 66.0011Z" fill="#56C400"/>
<path d="M90.7234 53.7885L84.4216 50.1504C83.4873 49.6113 82.2929 49.9311 81.7535 50.8652C81.2142 51.7994 81.5343 52.994 82.4685 53.5332L88.7703 57.1713C89.0779 57.3488 89.4136 57.4334 89.7451 57.4334C90.4201 57.4334 91.0767 57.083 91.4384 56.4565C91.9777 55.5223 91.6576 54.3277 90.7234 53.7885Z" fill="#56C400"/>
<path d="M85.8219 39.1464C86.9006 39.1464 87.775 38.2718 87.775 37.1933C87.775 36.1147 86.9006 35.2401 85.8219 35.2401H78.5453C77.4666 35.2401 76.5922 36.1147 76.5922 37.1933C76.5922 38.2718 77.4666 39.1464 78.5453 39.1464H85.8219Z" fill="#56C400"/>
<path d="M66.9794 28.9108C67.3106 28.9108 67.6466 28.8262 67.9542 28.6487L74.2559 25.0104C75.1901 24.4711 75.5102 23.2766 74.9708 22.3424C74.4313 21.4082 73.2368 21.0881 72.3028 21.6276L66.001 25.2658C65.0669 25.8051 64.7467 26.9996 65.2862 27.9338C65.6479 28.5604 66.3044 28.9108 66.9794 28.9108Z" fill="#56C400"/>
<path d="M53.6623 77.098C54.741 77.098 55.6154 76.2234 55.6154 75.1449C55.6154 74.0664 54.741 73.1918 53.6623 73.1918H53.6609C52.5822 73.1918 51.7086 74.0664 51.7086 75.1449C51.7086 76.2234 52.5836 77.098 53.6623 77.098Z" fill="#56C400"/>
</g>
<defs>
<clipPath id="clip0">
<rect width="100" height="100" rx="10" fill="white"/>
</clipPath>
</defs>
</svg>
