<svg width="100" height="100" viewBox="0 0 100 100" fill="none" xmlns="http://www.w3.org/2000/svg">
<path d="M99.5117 47.155L96.1783 43.8216C95.8658 43.5091 95.4421 43.3333 95 43.3333H90C89.0796 43.3333 88.3333 44.0796 88.3333 45V53.3333H85V41.6666C85 40.7462 84.2537 40 83.3333 40H72.5583L66.3917 30.7416C66.0815 30.2766 65.559 29.9983 65 30H55V26.6666H66.6667C67.5871 26.6666 68.3333 25.9204 68.3333 25V18.3333C68.3333 17.4129 67.5871 16.6666 66.6667 16.6666H33.3333C32.4129 16.6666 31.6667 17.4129 31.6667 18.3333V25C31.6667 25.9204 32.4129 26.6666 33.3333 26.6666H45V30H35C34.4429 30 33.9225 30.2781 33.6133 30.7416L27.4417 40H18.3333C17.4129 40 16.6667 40.7462 16.6667 41.6666V51.6666H13.3333V41.6666C13.3333 40.7462 12.5871 40 11.6667 40H5C4.44292 40 3.9225 40.2781 3.61333 40.7416L0.28 45.7416C0.0979167 46.0158 0.000625 46.3375 0 46.6666V51.6666C0.000625 51.9958 0.0979167 52.3175 0.28 52.5916L3.33333 57.1666V71.6666C3.33333 72.5871 4.07958 73.3333 5 73.3333H11.6667C12.5871 73.3333 13.3333 72.5871 13.3333 71.6666V61.6666H16.6667V71.6666C16.6667 72.5871 17.4129 73.3333 18.3333 73.3333H27.4417L33.6083 82.5916C33.9185 83.0566 34.441 83.335 35 83.3333H83.3333C84.2537 83.3333 85 82.5871 85 81.6666V66.6666H88.3333V78.3333C88.3333 79.2537 89.0796 80 90 80H95C95.4421 80 95.8658 79.8242 96.1783 79.5117L99.5117 76.1783C99.8242 75.8658 100 75.4421 100 75V48.3333C100 47.8912 99.8242 47.4675 99.5117 47.155ZM10 53.3333V70H6.66667V56.6666C6.66604 56.3375 6.56875 56.0158 6.38667 55.7416L3.33333 51.1666V47.1666L5.89167 43.3333H10V53.3333ZM16.6667 58.3333H13.3333V55H16.6667V58.3333ZM35 23.3333V20H65V23.3333H35ZM51.6667 26.6666V30H48.3333V26.6666H51.6667ZM75 80H35.8917L29.725 70.7416C29.4148 70.2766 28.8923 69.9983 28.3333 70H20V43.3333H28.3333C28.8904 43.3333 29.4108 43.0552 29.72 42.5916L35.8917 33.3333H64.1083L70.275 42.5916C70.5852 43.0566 71.1077 43.335 71.6667 43.3333H75V80ZM81.6667 55V80H78.3333V43.3333H81.6667V55ZM88.3333 63.3333H85V56.6666H88.3333V63.3333ZM96.6667 74.31L94.31 76.6666H91.6667V46.6666H94.31L96.6667 49.0233V74.31Z" fill="#56C400"/>
<path d="M64.5619 53.8736C64.2461 53.5292 63.8005 53.3333 63.3334 53.3333H55.4117L58.2934 40.3617C58.493 39.4631 57.9265 38.5729 57.028 38.3731C56.4967 38.255 55.9413 38.4037 55.54 38.7717L35.54 57.105C34.8617 57.7271 34.8161 58.7815 35.4382 59.4598C35.754 59.8042 36.1996 60 36.6667 60H44.5884L41.7067 72.9717C41.5071 73.8702 42.0736 74.7604 42.9721 74.9602C43.5034 75.0784 44.0588 74.9296 44.46 74.5617L64.46 56.2283C65.1384 55.6063 65.184 54.5519 64.5619 53.8736ZM46.1084 68.5284L48.2934 58.695C48.4932 57.7965 47.9267 56.9061 47.0282 56.7065C46.9094 56.68 46.7884 56.6667 46.6667 56.6667H40.9517L53.8917 44.805L51.7067 54.6383C51.5069 55.5369 52.0734 56.4273 52.9719 56.6269C53.0907 56.6533 53.2117 56.6665 53.3334 56.6667H59.0484L46.1084 68.5284Z" fill="#56C400"/>
<path d="M26.6667 53.3334H23.3333V66.6667H26.6667V53.3334Z" fill="#56C400"/>
<path d="M26.6667 46.6666H23.3333V50H26.6667V46.6666Z" fill="#56C400"/>
</svg>
