<svg width="100" height="100" viewBox="0 0 100 100" fill="none" xmlns="http://www.w3.org/2000/svg">
<path d="M76.5625 17.1875V7.8125C76.5626 7.59089 76.5156 7.37178 76.4245 7.16974C76.3335 6.9677 76.2005 6.78733 76.0344 6.64062C75.8675 6.49523 75.672 6.38646 75.4604 6.32132C75.2489 6.25619 75.026 6.23615 74.8062 6.2625L57.8125 8.38594V4.6875C57.8125 4.2731 57.6479 3.87567 57.3549 3.58265C57.0618 3.28962 56.6644 3.125 56.25 3.125H43.75C43.3356 3.125 42.9382 3.28962 42.6451 3.58265C42.3521 3.87567 42.1875 4.2731 42.1875 4.6875V10.3391L24.8063 12.5125C24.4284 12.5597 24.0808 12.7433 23.8288 13.0287C23.5768 13.3141 23.4376 13.6817 23.4375 14.0625V23.4375C23.4374 23.6591 23.4844 23.8782 23.5755 24.0803C23.6665 24.2823 23.7995 24.4627 23.9656 24.6094C24.1682 24.7784 24.4109 24.8925 24.6703 24.9406V24.9641L38.5078 27.9875L24.8109 29.7062C24.4333 29.7523 24.0855 29.9345 23.8326 30.2187C23.5798 30.5029 23.4393 30.8696 23.4375 31.25V40.625C23.4374 40.8466 23.4844 41.0657 23.5755 41.2678C23.6665 41.4698 23.7995 41.6502 23.9656 41.7969C24.1682 41.9659 24.4109 42.08 24.6703 42.1281V42.1516L38.5078 45.175L24.8109 46.8937C24.4333 46.9398 24.0855 47.122 23.8326 47.4062C23.5798 47.6904 23.4393 48.0571 23.4375 48.4375V67.1875C23.4375 67.6019 23.6021 67.9993 23.8951 68.2924C24.1882 68.5854 24.5856 68.75 25 68.75H42.1875V71.875H28.125V87.5H37.5V96.875H62.5V87.5H71.875V71.875H57.8125V68.75H75C75.4144 68.75 75.8118 68.5854 76.1049 68.2924C76.3979 67.9993 76.5625 67.6019 76.5625 67.1875V57.8125C76.5625 57.3981 76.3979 57.0007 76.1049 56.7076C75.8118 56.4146 75.4144 56.25 75 56.25H57.8125V55.2859L75.1938 53.1125C75.5716 53.0653 75.9192 52.8817 76.1712 52.5963C76.4232 52.3109 76.5624 51.9433 76.5625 51.5625V42.1875C76.5626 41.9659 76.5156 41.7468 76.4245 41.5447C76.3335 41.3427 76.2005 41.1623 76.0344 41.0156C75.8315 40.8458 75.5882 40.7312 75.3281 40.6828V40.6609L61.4828 37.6391L75.1891 35.9203C75.5669 35.8743 75.915 35.6918 76.1679 35.4073C76.4208 35.1227 76.5611 34.7557 76.5625 34.375V25C76.5626 24.7784 76.5156 24.5593 76.4245 24.3572C76.3335 24.1552 76.2005 23.9748 76.0344 23.8281C75.8314 23.6588 75.5881 23.5447 75.3281 23.4969V23.4734L61.4828 20.4516L75.1891 18.7328C75.5669 18.6868 75.915 18.5043 76.1679 18.2198C76.4208 17.9352 76.5611 17.5682 76.5625 17.1875ZM45.3125 6.25H54.6875V8.77656L45.3125 9.94844V6.25ZM57.8125 22.8453L65.7578 24.5813L57.8125 25.5734V22.8453ZM54.6875 25.9703L47.8125 26.8297L45.3125 26.2828V22.4734L54.6875 21.3016V25.9703ZM42.1875 25.6L34.2375 23.8641L42.1875 22.8641V25.6ZM57.8125 40.0391L65.7578 41.775L57.8125 42.7609V40.0391ZM54.6875 43.1641L47.8125 44.0234L45.3125 43.4766V39.6609L54.6875 38.4891V43.1641ZM42.1875 42.7938L34.2375 41.0578L42.1875 40.0516V42.7938ZM59.375 93.75H40.625V87.5H59.375V93.75ZM68.75 84.375H31.25V81.25H37.5V78.125H31.25V75H68.75V84.375ZM54.6875 71.875H45.3125V68.75H54.6875V71.875ZM73.4375 65.625H26.5625V59.375H73.4375V65.625ZM54.6875 56.25H50.0969L54.6875 55.6766V56.25ZM73.4375 50.1828L26.5625 56.0422V49.8172L73.4375 43.9578V50.1828ZM73.4375 32.9953L26.5625 38.8547V32.6297L73.4375 26.7703V32.9953ZM73.4375 15.8078L26.5625 21.6672V15.4422L73.4375 9.58281V15.8078Z" fill="#56C400"/>
<path d="M43.75 78.125H40.625V81.25H43.75V78.125Z" fill="#56C400"/>
</svg>
