<svg width="100" height="100" viewBox="0 0 100 100" fill="none" xmlns="http://www.w3.org/2000/svg">
<path d="M98.3333 31.6667C99.2537 31.6667 100 30.9204 100 30V23.3333C100 20.5719 97.7615 18.3333 95 18.3333H93.3333V13.3333H90V18.3333H83.3333V13.3333H85C85.9204 13.3333 86.6667 12.5871 86.6667 11.6667V1.66667C86.6667 0.74625 85.9204 0 85 0H65C64.0796 0 63.3333 0.74625 63.3333 1.66667V11.6667C63.3333 12.5871 64.0796 13.3333 65 13.3333H66.6667V18.3333H26.6667V13.3333H23.3333V18.3333H21.6667C18.9052 18.3333 16.6667 20.5719 16.6667 23.3333H11.6667C8.90521 23.3333 6.66667 25.5719 6.66667 28.3333V36.6667H5C4.07958 36.6667 3.33333 37.4129 3.33333 38.3333V43.3333H1.66667C0.74625 43.3333 0 44.0796 0 45V71.6667C0 72.5871 0.74625 73.3333 1.66667 73.3333H3.33333V78.3333C3.33333 79.2537 4.07958 80 5 80H6.66667V90C6.66667 92.7615 8.90521 95 11.6667 95H16.6667C16.6667 97.7615 18.9052 100 21.6667 100H95C97.7615 100 100 97.7615 100 95V88.3333C100 87.4129 99.2537 86.6667 98.3333 86.6667H96.6667V31.6667H98.3333ZM66.6667 3.33333H70V6.66667H73.3333V3.33333H76.6667V6.66667H80V3.33333H83.3333V10H66.6667V3.33333ZM80 13.3333V18.3333H70V13.3333H80ZM6.66667 40H10V43.3333H6.66667V40ZM3.33333 70V66.6667H10V63.3333H3.33333V46.6667H13.3333V70H3.33333ZM6.66667 76.6667V73.3333H10V76.6667H6.66667ZM16.6667 88.3333V91.6667H11.6667C10.7462 91.6667 10 90.9204 10 90V80H11.6667C12.5871 80 13.3333 79.2537 13.3333 78.3333V73.3333H15C15.9204 73.3333 16.6667 72.5871 16.6667 71.6667V45C16.6667 44.0796 15.9204 43.3333 15 43.3333H13.3333V38.3333C13.3333 37.4129 12.5871 36.6667 11.6667 36.6667H10V28.3333C10 27.4129 10.7462 26.6667 11.6667 26.6667H16.6667V30C16.6667 30.9204 17.4129 31.6667 18.3333 31.6667H20V86.6667H18.3333C17.4129 86.6667 16.6667 87.4129 16.6667 88.3333ZM96.6667 95C96.6667 95.9204 95.9204 96.6667 95 96.6667H21.6667C20.7462 96.6667 20 95.9204 20 95V90H96.6667V95ZM23.3333 86.6667V31.6667H93.3333V86.6667H23.3333ZM20 28.3333V23.3333C20 22.4129 20.7462 21.6667 21.6667 21.6667H95C95.9204 21.6667 96.6667 22.4129 96.6667 23.3333V28.3333H20Z" fill="#56C400"/>
<path d="M88.3333 36.6667H28.3333V40H88.3333V36.6667Z" fill="#56C400"/>
<path d="M88.3333 45H28.3333V48.3333H88.3333V45Z" fill="#56C400"/>
<path d="M88.3333 53.3333H28.3333V56.6667H88.3333V53.3333Z" fill="#56C400"/>
<path d="M88.3333 61.6667H28.3333V65H88.3333V61.6667Z" fill="#56C400"/>
<path d="M88.3333 70H28.3333V73.3333H88.3333V70Z" fill="#56C400"/>
<path d="M88.3333 78.3333H28.3333V81.6667H88.3333V78.3333Z" fill="#56C400"/>
</svg>
