<svg width="100" height="100" viewBox="0 0 100 100" fill="none" xmlns="http://www.w3.org/2000/svg">
<path d="M50 72.9166C28.8334 72.9166 8.7916 71.675 5.4959 71.1457C4.875 69.3457 4.1668 63.3582 4.1668 58.3332C4.1668 55.3082 4.1668 47.4457 5.1293 45.6291C7.3043 44.8541 8.4127 43.2 9.3918 41.7291L9.8543 40.9666C10.2709 40.7291 11.8168 40.6875 12.7418 40.6582C15.1584 40.5873 17.9002 40.5082 18.6543 38.1291C19.3084 36.0582 26.5334 21.9582 28.1209 20.5582C29.8834 19.7166 42.8625 18.75 50 18.75C51.15 18.75 52.0834 17.8166 52.0834 16.6666C52.0834 15.5166 51.15 14.5834 50 14.5834C47.6166 14.5834 29.0959 15.0875 26 16.9709C23.2541 18.6418 16.2459 33.1668 14.8916 36.3334C14.35 36.4459 13.2916 36.475 12.6166 36.4959C10.2916 36.5625 7.8832 36.6334 6.6375 38.375L5.925 39.4166C5 40.8 4.5125 41.4791 3.5791 41.75C0.516602 42.6459 0 47.5875 0 58.3334C0 59.8418 0.0875 73.1084 3.1875 74.7543C5.4375 75.9543 31.4666 77.0834 50 77.0834C51.15 77.0834 52.0834 76.15 52.0834 75C52.0834 73.85 51.15 72.9166 50 72.9166Z" fill="#56C400"/>
<path d="M50 31.25C34.2834 31.25 19.5541 33.5375 15.6666 35.675C14.6582 36.2291 14.2875 37.4959 14.8416 38.5041C15.2166 39.1916 15.9332 39.5832 16.6666 39.5832C17.0082 39.5832 17.35 39.4998 17.6666 39.3248C20.225 37.9248 33.2166 35.4164 50 35.4164C51.15 35.4164 52.0834 34.483 52.0834 33.333C52.0834 32.183 51.15 31.25 50 31.25Z" fill="#56C400"/>
<path d="M50 60.4166C28.1209 60.4166 2.50839 58.3625 2.25 58.3416C1.1375 58.2582 0.0958939 59.1041 0.00839387 60.25C-0.0832077 61.3959 0.770894 62.4041 1.91679 62.4959C2.17089 62.5125 27.9502 64.5834 50.0002 64.5834C51.1502 64.5834 52.0836 63.65 52.0836 62.5C52.0836 61.35 51.15 60.4166 50 60.4166Z" fill="#56C400"/>
<path d="M18.75 72.9166C17.6 72.9166 16.6666 73.85 16.6666 75V79.1666C16.6666 80.3166 15.7291 81.25 14.5832 81.25H6.25C5.1041 81.25 4.1666 80.3166 4.1666 79.1666V70.8332C4.1666 69.6832 3.2332 68.7498 2.0832 68.7498C0.933203 68.7498 0 69.6834 0 70.8334V79.1668C0 82.6127 2.8041 85.4168 6.25 85.4168H14.5834C18.0293 85.4168 20.8334 82.6127 20.8334 79.1668V75C20.8334 73.85 19.9 72.9166 18.75 72.9166Z" fill="#56C400"/>
<path d="M18.75 31.25H10.4166C9.26659 31.25 8.33319 32.1834 8.33319 33.3334C8.33319 34.4834 9.26659 35.4168 10.4166 35.4168H18.75C19.9 35.4168 20.8334 34.4834 20.8334 33.3334C20.8334 32.1834 19.9 31.25 18.75 31.25Z" fill="#56C400"/>
<path d="M96.425 41.75C95.4916 41.4791 95.0041 40.8 94.0791 39.4166L93.3666 38.375C92.1207 36.6334 89.7125 36.5625 87.3832 36.4959C86.7082 36.475 85.6498 36.4418 85.1082 36.3334C83.7541 33.1668 76.7457 18.6418 73.9998 16.9709C70.9041 15.0875 52.3834 14.5834 50 14.5834C48.85 14.5834 47.9166 15.5168 47.9166 16.6668C47.9166 17.8168 48.85 18.75 50 18.75C57.1375 18.75 70.1166 19.7166 71.7416 20.4584C73.4707 21.9584 80.7 36.0584 81.3541 38.1293C82.1082 40.5084 84.85 40.5877 87.2666 40.6584C88.1875 40.6834 89.7332 40.7293 89.975 40.7918L90.6125 41.7293C91.5916 43.2002 92.7 44.8543 94.875 45.6293C95.8334 47.4459 95.8334 55.3084 95.8334 58.3334C95.8334 63.3043 95.1375 69.2209 94.525 71.0918C90.5625 71.7127 70.8291 72.9168 50 72.9168C48.85 72.9168 47.9166 73.8502 47.9166 75.0002C47.9166 76.1502 48.85 77.0836 50 77.0836C68.5334 77.0836 94.5625 75.9545 96.8084 74.7545C99.9125 73.1084 100 59.8416 100 58.3334C100 47.5875 99.4834 42.6459 96.425 41.75Z" fill="#56C400"/>
<path d="M84.3334 35.675C80.4459 33.5375 65.7166 31.25 50 31.25C48.85 31.25 47.9166 32.1834 47.9166 33.3334C47.9166 34.4834 48.85 35.4168 50 35.4168C66.7834 35.4168 79.775 37.9252 82.3334 39.3252C82.65 39.5002 82.9918 39.5836 83.3334 39.5836C84.0668 39.5836 84.7834 39.192 85.1584 38.5045C85.7125 37.4959 85.3416 36.2291 84.3334 35.675Z" fill="#56C400"/>
<path d="M99.9916 60.2459C99.9041 59.1 98.9041 58.2584 97.75 58.3375C97.4916 58.3625 71.8791 60.4166 50 60.4166C48.85 60.4166 47.9166 61.35 47.9166 62.5C47.9166 63.65 48.85 64.5834 50 64.5834C72.05 64.5834 97.8291 62.5125 98.0834 62.4918C99.2291 62.4 100.083 61.3916 99.9916 60.2459Z" fill="#56C400"/>
<path d="M97.9166 68.75C96.7666 68.75 95.8332 69.6834 95.8332 70.8334V79.1668C95.8332 80.3168 94.8957 81.2502 93.7498 81.2502H85.4164C84.2705 81.2502 83.333 80.3168 83.333 79.1668V75C83.333 73.85 82.3996 72.9166 81.2496 72.9166C80.0996 72.9166 79.1662 73.85 79.1662 75V79.1666C79.1662 82.6125 81.9703 85.4166 85.4162 85.4166H93.75C97.1959 85.4166 100 82.6125 100 79.1666V70.8332C100 69.6834 99.0666 68.75 97.9166 68.75Z" fill="#56C400"/>
<path d="M89.5834 31.25H81.25C80.1 31.25 79.1666 32.1834 79.1666 33.3334C79.1666 34.4834 80.1 35.4168 81.25 35.4168H89.5834C90.7334 35.4168 91.6668 34.4834 91.6668 33.3334C91.6668 32.1834 90.7334 31.25 89.5834 31.25Z" fill="#56C400"/>
<path d="M26.9291 51.7334C25.8791 50.6 24.4916 50 22.9166 50C18.3125 50 4.61249 47.9584 4.47499 47.9416C3.34589 47.7791 2.27499 48.5541 2.10839 49.6957C1.93749 50.8332 2.72499 51.8916 3.85839 52.0623C4.43339 52.1457 18 54.1664 22.9168 54.1664C23.3334 54.1664 23.6084 54.2789 23.8668 54.5623C24.9584 55.7457 25.1043 58.9123 25.0043 60.2623C24.9252 61.4082 25.7793 62.4082 26.9252 62.4957C26.9793 62.4998 27.0336 62.4998 27.0877 62.4998C28.1627 62.4998 29.0752 61.6707 29.1586 60.5789C29.2084 59.9709 29.55 54.5666 26.9291 51.7334Z" fill="#56C400"/>
<path d="M97.9209 49.6916C97.75 48.55 96.6918 47.7957 95.5543 47.9375C95.4168 47.9584 81.7209 50 77.1127 50C75.5377 50 74.1502 50.6 73.1002 51.7375C70.4793 54.5709 70.8211 59.975 70.8711 60.5834C70.9545 61.6709 71.867 62.5 72.942 62.5C72.9961 62.5 73.0504 62.4959 73.1045 62.4916C74.2504 62.4041 75.1086 61.4041 75.0254 60.2582C74.9213 58.9082 75.067 55.7373 76.1629 54.5582C76.4213 54.2791 76.6963 54.1666 77.1129 54.1666C82.0295 54.1666 95.592 52.1457 96.1713 52.0582C97.3084 51.8875 98.0916 50.8291 97.9209 49.6916Z" fill="#56C400"/>
<path d="M64.5834 52.0834H35.4166C34.2666 52.0834 33.3332 53.0168 33.3332 54.1668C33.3332 55.3168 34.2666 56.25 35.4166 56.25H64.5832C65.7332 56.25 66.6666 55.3166 66.6666 54.1666C66.6666 53.0166 65.7334 52.0834 64.5834 52.0834Z" fill="#56C400"/>
</svg>
