<svg width="100" height="100" viewBox="0 0 100 100" fill="none" xmlns="http://www.w3.org/2000/svg">
<g clip-path="url(#clip0)">
<path d="M0.316322 9.17324L6.98552 20.8437C7.21048 21.238 7.58701 21.5233 8.02733 21.6338L14.2494 23.1893L35.5896 44.5295L37.9475 42.1722L16.2733 20.4987C16.06 20.2847 15.7925 20.1331 15.4997 20.0597L9.52111 18.5598L3.84296 8.6177L8.71112 3.74954L18.6573 9.43318L20.158 15.4117C20.2307 15.7053 20.3829 15.9734 20.5962 16.1867L42.2704 37.861L44.6277 35.503L23.2875 14.1628L21.732 7.9442C21.6216 7.50319 21.3362 7.12598 20.9419 6.90033L9.27077 0.231818C8.6199 -0.138541 7.801 -0.0288047 7.27015 0.499985L0.601635 7.16919C0.065301 7.6966 -0.0512934 8.51688 0.316322 9.17324Z" fill="#56C400"/>
<path d="M69.6318 32.8584L32.9532 69.5376L30.5953 67.1796L67.2745 30.5011L69.6318 32.8584Z" fill="#56C400"/>
<path d="M26.5337 70.8352C26.2319 70.3332 25.6901 70.0266 25.1044 70.0266H15.1012C14.5162 70.0266 13.9737 70.3332 13.6726 70.8352L8.67072 79.171C8.35317 79.6991 8.35317 80.3596 8.67072 80.8884L13.6726 89.2242C13.9737 89.7256 14.5162 90.0328 15.1012 90.0328H25.1044C25.6901 90.0328 26.2319 89.7256 26.5337 89.2242L31.5349 80.8884C31.8524 80.3596 31.8524 79.6991 31.5349 79.171L26.5337 70.8352ZM24.1613 86.6982H16.045L12.0437 80.0297L16.045 73.3605H24.1613L28.1626 80.0297L24.1613 86.6982Z" fill="#56C400"/>
<path d="M80.1225 40.0166C91.1338 40.0536 100.091 31.1568 100.128 20.1455C100.134 18.4693 99.9278 16.7999 99.5156 15.1751C99.2934 14.2815 98.3887 13.7376 97.4951 13.9598C97.2015 14.0332 96.934 14.1847 96.7201 14.398L86.3418 24.7695L78.1075 22.0254L75.3613 13.7931L85.7396 3.41279C86.3905 2.76123 86.3898 1.70571 85.7382 1.05484C85.5236 0.840166 85.2533 0.687907 84.9577 0.615207C74.2791 -2.0891 63.431 4.37504 60.7267 15.053C60.3158 16.673 60.1108 18.3383 60.1163 20.0097C60.1204 21.3224 60.2555 22.631 60.5216 23.9163L24.009 60.4282C22.7237 60.1628 21.4151 60.0276 20.1031 60.0228C9.05339 60.0228 0.0961914 68.98 0.0961914 80.0298C0.0961914 91.0788 9.05339 100.036 20.1031 100.036C31.1521 100.036 40.1093 91.0788 40.1093 80.0298C40.1052 78.7171 39.9694 77.4085 39.704 76.1232L48.4452 67.382L52.2681 71.2049C52.9196 71.8558 53.9745 71.8558 54.626 71.2049L55.4593 70.3709C56.1905 69.6446 57.3722 69.6446 58.1033 70.3709C58.8337 71.0993 58.8351 72.2817 58.1067 73.0122C58.106 73.0128 58.1047 73.0142 58.1033 73.0156L57.27 73.8489C56.6191 74.4998 56.6191 75.5553 57.27 76.2062L77.1582 96.0944C82.3892 101.373 90.9089 101.412 96.1878 96.1809C101.466 90.9499 101.505 82.4296 96.2736 77.1513C96.2454 77.1225 96.2166 77.0937 96.1878 77.0648L76.2996 57.1773C75.6487 56.5264 74.5932 56.5264 73.9423 57.1773L73.109 58.0106C72.3772 58.7376 71.1962 58.7376 70.4644 58.0106C69.7346 57.2822 69.7326 56.0998 70.4609 55.37C70.4623 55.3687 70.4637 55.368 70.4644 55.3666L71.2983 54.5326C71.9492 53.8817 71.9492 52.8262 71.2983 52.1754L67.4754 48.3524L76.2166 39.6113C77.5019 39.8767 78.8105 40.0125 80.1225 40.0166ZM86.673 96.7021C85.4618 96.7 84.2609 96.4813 83.1272 96.0553L96.1481 83.0338C98.113 88.2607 95.4691 94.0904 90.2422 96.0553C89.1016 96.484 87.8925 96.7035 86.673 96.7021ZM67.7854 53.3708C65.9391 55.5731 66.2286 58.8555 68.4308 60.7012C70.3663 62.3232 73.1872 62.3218 75.1206 60.6964L93.8306 79.4228C94.0336 79.6265 94.2236 79.8412 94.4074 80.0593L80.1527 94.314C79.9339 94.1309 79.7192 93.9409 79.5155 93.7372L60.7911 75.0114C62.6374 72.8092 62.348 69.5267 60.1458 67.681C58.2103 66.0583 55.3887 66.0604 53.4553 67.6852L50.788 65.0179L65.1175 50.7097L67.7854 53.3708ZM74.5177 36.6024L36.6966 74.4161C36.2816 74.8303 36.115 75.4318 36.2562 76.0004C38.5435 84.983 33.1157 94.1192 24.1325 96.4058C15.1499 98.6931 6.0137 93.2653 3.72639 84.2821C1.43977 75.2995 6.86758 66.1633 15.8508 63.876C18.5682 63.1846 21.4151 63.1846 24.1325 63.876C24.701 64.0152 25.3012 63.8485 25.7168 63.4363L63.529 25.622C63.9433 25.2077 64.11 24.6062 63.9673 24.0384C61.6958 15.1607 67.0509 6.12258 75.9285 3.85036C77.6061 3.42171 79.3413 3.2571 81.0696 3.36478L72.275 12.1629C71.8285 12.6087 71.6721 13.2691 71.8717 13.8679L75.2056 23.8717C75.3723 24.3689 75.7632 24.7599 76.2612 24.9252L86.265 28.2598C86.863 28.4593 87.5235 28.3037 87.97 27.8579L96.7646 19.0632C96.7845 19.3814 96.7948 19.6962 96.7948 20.0097C96.8414 29.1706 89.4535 36.6347 80.2926 36.682C78.8763 36.6889 77.4648 36.5147 76.0931 36.1635C75.5246 36.0215 74.9231 36.1875 74.5088 36.6018H74.5177V36.6024Z" fill="#56C400"/>
<path d="M86.3047 83.852L83.9468 86.21L67.2752 69.5383L69.6324 67.1803L86.3047 83.852Z" fill="#56C400"/>
</g>
<defs>
<clipPath id="clip0">
<rect width="100" height="100" rx="10" fill="white"/>
</clipPath>
</defs>
</svg>
