<svg width="100" height="100" viewBox="0 0 100 100" fill="none" xmlns="http://www.w3.org/2000/svg">
<g clip-path="url(#clip0)">
<path d="M61.3105 40.711L46.2855 54.9024L39.0746 47.4839C38.2751 46.6609 36.9588 46.6422 36.1366 47.4416C35.3136 48.2418 35.2949 49.5573 36.0943 50.3803L44.7428 59.2584C45.5463 60.0668 46.8447 60.0944 47.6816 59.3203L64.2077 43.7327C64.609 43.3542 64.8435 42.8316 64.859 42.2805C64.8744 41.7293 64.6701 41.1945 64.2908 40.794C63.4865 39.958 62.1604 39.9213 61.3105 40.711V40.711Z" fill="#56C400"/>
<path d="M50.1612 18.8706C32.9895 18.8706 19.0268 32.8333 19.0268 50.005C19.0268 67.1776 32.9895 81.1403 50.1612 81.1403C67.3337 81.1403 81.2964 67.1776 81.2964 50.005C81.2964 32.8333 67.3337 18.8706 50.1612 18.8706V18.8706ZM50.1612 76.9723C35.2819 76.9723 23.1948 64.864 23.1948 50.005C23.1948 35.1461 35.2819 23.0386 50.1612 23.0386C65.0552 23.0386 77.1285 35.1119 77.1285 50.005C77.1285 64.8982 65.0552 76.9723 50.1612 76.9723V76.9723Z" fill="#56C400"/>
<path d="M93.0083 38.5431L93.6962 26.1849C93.7442 25.3554 93.2932 24.5764 92.55 24.2052L81.5464 18.6411L75.9823 7.63748C75.6038 6.90075 74.8296 6.45221 74.0025 6.49128L61.6232 7.15881L51.3074 0.343529C50.6122 -0.114784 49.7111 -0.114784 49.015 0.343529L38.6993 7.15881L26.3419 6.47093C25.5116 6.42209 24.7334 6.87308 24.3621 7.61712L18.7972 18.6207L7.79446 24.1848C7.05692 24.5625 6.60919 25.3367 6.64827 26.1646L7.33533 38.5228L0.52086 48.8385C0.0625455 49.5337 0.0625455 50.4349 0.52086 51.1309L7.31498 61.467L6.6271 73.8252C6.57907 74.6547 7.02924 75.4337 7.77329 75.8049L18.7769 81.369L24.341 92.3726C24.7187 93.1102 25.4929 93.5579 26.3208 93.5188L38.679 92.8309L48.9947 99.6454C49.6858 100.118 50.5959 100.118 51.2871 99.6454L61.6028 92.8309L73.961 93.5188C74.7905 93.5668 75.5688 93.1159 75.9408 92.3726L81.5049 81.369L92.5085 75.8049C93.2452 75.4264 93.6937 74.6531 93.6547 73.8252L92.9668 61.467L99.7813 51.1512C100.24 50.456 100.24 49.5541 99.7813 48.8589L93.0083 38.5431ZM89.1318 59.7583C88.8778 60.1311 88.7597 60.5796 88.7988 61.0298L89.4444 72.7205L79.0456 77.972C78.6492 78.1706 78.3276 78.493 78.129 78.8894L72.8767 89.2882L61.186 88.6426C60.7383 88.6263 60.2962 88.7419 59.9144 88.9756L50.1612 95.4156L40.4088 88.9756C40.0702 88.7468 39.6713 88.6231 39.2626 88.6214H39.1584L27.467 89.2678L22.2155 78.8682C22.0168 78.4718 21.6953 78.1502 21.298 77.9516L10.8781 72.7205L11.5245 61.0298C11.5407 60.5821 11.4243 60.1401 11.1907 59.7583L4.75151 50.005L11.1907 40.2518C11.4455 39.8798 11.5635 39.4305 11.5245 38.9811L10.8781 27.2896L21.2777 22.0381C21.6741 21.8395 21.9957 21.518 22.1943 21.1215L27.4458 10.7219L39.1373 11.3683C39.5842 11.3838 40.0262 11.2682 40.4088 11.0345L50.1612 4.59535L59.9144 11.0345C60.2873 11.2893 60.7366 11.4074 61.186 11.3683L72.8767 10.7219L78.129 21.1215C78.3276 21.518 78.6492 21.8395 79.0456 22.0381L89.4444 27.2896L88.7988 38.9811C88.7825 39.428 88.8989 39.87 89.1318 40.2518L95.5718 50.005L89.1318 59.7583Z" fill="#56C400"/>
</g>
<defs>
<clipPath id="clip0">
<rect width="100" height="100" fill="white"/>
</clipPath>
</defs>
</svg>
