<svg width="100" height="100" viewBox="0 0 100 100" fill="none" xmlns="http://www.w3.org/2000/svg">
<path d="M69.5315 37.1105H31.4449C30.3662 37.1105 29.4918 37.985 29.4918 39.0637C29.4918 40.1424 30.3662 41.0168 31.4449 41.0168H69.5315C70.6102 41.0168 71.4846 40.1424 71.4846 39.0637C71.4846 37.985 70.6102 37.1105 69.5315 37.1105Z" fill="#56C400"/>
<path d="M69.5313 45.9H22.6565C21.5778 45.9 20.7034 46.7744 20.7034 47.8531C20.7034 48.9318 21.5778 49.8062 22.6565 49.8062H69.5313C70.61 49.8062 71.4844 48.9318 71.4844 47.8531C71.4844 46.7744 70.61 45.9 69.5313 45.9Z" fill="#56C400"/>
<path d="M22.6565 32.2275H69.5313C70.61 32.2275 71.4844 31.3531 71.4844 30.2744C71.4844 29.1957 70.61 28.3213 69.5313 28.3213H22.6565C21.5778 28.3213 20.7034 29.1957 20.7034 30.2744C20.7034 31.3531 21.5778 32.2275 22.6565 32.2275V32.2275Z" fill="#56C400"/>
<path d="M42.1874 54.689H22.6562C21.5775 54.689 20.7031 55.5635 20.7031 56.6422C20.7031 57.7209 21.5775 58.5953 22.6562 58.5953H42.1874C43.2661 58.5953 44.1406 57.7209 44.1406 56.6422C44.1406 55.5635 43.2661 54.689 42.1874 54.689Z" fill="#56C400"/>
<path d="M34.3752 63.4785H22.6564C21.5777 63.4785 20.7033 64.3529 20.7033 65.4316C20.7033 66.5103 21.5777 67.3847 22.6564 67.3847H34.3752C35.4539 67.3847 36.3283 66.5103 36.3283 65.4316C36.3283 64.3529 35.4539 63.4785 34.3752 63.4785Z" fill="#56C400"/>
<path d="M22.6565 41.0168C23.7352 41.0168 24.6096 40.1424 24.6096 39.0637C24.6096 37.985 23.7352 37.1105 22.6565 37.1105H22.6551C21.5764 37.1105 20.7028 37.985 20.7028 39.0637C20.7028 40.1424 21.5778 41.0168 22.6565 41.0168Z" fill="#56C400"/>
<path d="M77.3438 67.4484C75.7787 67.4484 74.3074 68.0579 73.2008 69.1644L66.9272 75.4382L65.8617 74.3726C64.7551 73.2659 63.2838 72.6566 61.7188 72.6566C60.1537 72.6566 58.6826 73.2659 57.576 74.3726C56.4694 75.4792 55.86 76.9505 55.86 78.5156C55.86 80.0806 56.4696 81.5519 57.576 82.6583L62.7844 87.8667C63.9268 89.0091 65.4268 89.58 66.9272 89.5798C68.4274 89.5798 69.9282 89.0087 71.0701 87.8667L81.4867 77.4501C83.7711 75.1658 83.7711 71.4486 81.4867 69.1644C80.3801 68.0579 78.9088 67.4484 77.3438 67.4484V67.4484ZM78.7244 74.6882L68.3078 85.1048C67.5463 85.8661 66.3074 85.8663 65.5463 85.1048L60.3379 79.8964C59.9692 79.5277 59.766 79.0374 59.766 78.5158C59.766 77.9943 59.9692 77.5038 60.3379 77.1351C60.7067 76.7663 61.1969 76.5632 61.7186 76.5632C62.2403 76.5632 62.7307 76.7663 63.0992 77.1351L65.5457 79.5816C65.9119 79.9478 66.4088 80.1536 66.9268 80.1536C67.4447 80.1536 67.9416 79.9478 68.3078 79.5816L75.9625 71.9269C76.3313 71.5579 76.8217 71.355 77.3432 71.355C77.8649 71.355 78.3551 71.5581 78.7239 71.9269C79.486 72.688 79.486 73.9269 78.7244 74.6882V74.6882Z" fill="#56C400"/>
<path d="M85.1562 57.0314H83.2031V3.90623C83.2031 1.75234 81.4507 0 79.2968 0H30.4695C29.9515 0 29.4547 0.205859 29.0884 0.572068L9.55669 20.1038C9.19048 20.47 8.98462 20.9669 8.98462 21.4849V88.2809C8.98462 90.4348 10.737 92.1871 12.8909 92.1871H48.0472V94.1404C48.0472 97.3713 50.6757 99.9998 53.9065 99.9998H85.1564C88.3872 99.9998 91.0157 97.3713 91.0157 94.1404V62.8906C91.0156 59.6599 88.387 57.0314 85.1562 57.0314V57.0314ZM28.5164 6.66833V19.5318H15.653L28.5164 6.66833ZM12.8909 88.2809V23.438H28.5162C30.6701 23.438 32.4224 21.6857 32.4224 19.5318V3.90623H79.2966V57.0314H53.9061C50.6753 57.0314 48.0468 59.6599 48.0468 62.8908V88.2809H12.8909ZM87.1093 94.1406C87.1093 95.2176 86.2331 96.0938 85.1562 96.0938H53.9063C52.8294 96.0938 51.9532 95.2176 51.9532 94.1406V62.8908C51.9532 61.8138 52.8294 60.9377 53.9063 60.9377H85.1562C86.2331 60.9377 87.1093 61.8138 87.1093 62.8908V94.1406Z" fill="#56C400"/>
</svg>
